<mxfile host="Electron" agent="Mozilla/5.0 (Windows NT 10.0; Win64; x64) AppleWebKit/537.36 (KHTML, like Gecko) draw.io/27.0.5 Chrome/134.0.6998.205 Electron/35.3.0 Safari/537.36" version="27.0.5">
  <diagram name="Page-1" id="dug8fv7ycsA11RF5Gt8a">
    <mxGraphModel dx="2916" dy="2302" grid="1" gridSize="10" guides="1" tooltips="1" connect="1" arrows="1" fold="1" page="1" pageScale="1" pageWidth="850" pageHeight="1100" math="0" shadow="0">
      <root>
        <mxCell id="0" />
        <mxCell id="1" parent="0" />
        <mxCell id="UqHOQpS3FC7qUrL0Vxzs-60" value="" style="rounded=1;whiteSpace=wrap;html=1;" vertex="1" parent="1">
          <mxGeometry x="-30" y="-30" width="980" height="720" as="geometry" />
        </mxCell>
        <mxCell id="UqHOQpS3FC7qUrL0Vxzs-7" style="edgeStyle=orthogonalEdgeStyle;rounded=0;orthogonalLoop=1;jettySize=auto;html=1;exitX=0.75;exitY=1;exitDx=0;exitDy=0;entryX=1;entryY=0.5;entryDx=0;entryDy=0;" edge="1" parent="1" source="UqHOQpS3FC7qUrL0Vxzs-1" target="UqHOQpS3FC7qUrL0Vxzs-2">
          <mxGeometry relative="1" as="geometry" />
        </mxCell>
        <mxCell id="UqHOQpS3FC7qUrL0Vxzs-10" style="edgeStyle=orthogonalEdgeStyle;rounded=0;orthogonalLoop=1;jettySize=auto;html=1;exitX=0.75;exitY=1;exitDx=0;exitDy=0;entryX=1;entryY=0.5;entryDx=0;entryDy=0;" edge="1" parent="1" source="UqHOQpS3FC7qUrL0Vxzs-1" target="UqHOQpS3FC7qUrL0Vxzs-9">
          <mxGeometry relative="1" as="geometry" />
        </mxCell>
        <mxCell id="UqHOQpS3FC7qUrL0Vxzs-16" style="edgeStyle=orthogonalEdgeStyle;rounded=0;orthogonalLoop=1;jettySize=auto;html=1;exitX=0.75;exitY=1;exitDx=0;exitDy=0;entryX=1;entryY=0.5;entryDx=0;entryDy=0;" edge="1" parent="1" source="UqHOQpS3FC7qUrL0Vxzs-1" target="UqHOQpS3FC7qUrL0Vxzs-15">
          <mxGeometry relative="1" as="geometry" />
        </mxCell>
        <mxCell id="UqHOQpS3FC7qUrL0Vxzs-1" value="Superstructure" style="rounded=0;whiteSpace=wrap;html=1;fontSize=20;fillColor=#e3c800;fontColor=#000000;strokeColor=#B09500;" vertex="1" parent="1">
          <mxGeometry x="140" y="10" width="160" height="60" as="geometry" />
        </mxCell>
        <mxCell id="UqHOQpS3FC7qUrL0Vxzs-5" style="edgeStyle=orthogonalEdgeStyle;rounded=0;orthogonalLoop=1;jettySize=auto;html=1;exitX=0.75;exitY=1;exitDx=0;exitDy=0;entryX=1;entryY=0.5;entryDx=0;entryDy=0;" edge="1" parent="1" source="UqHOQpS3FC7qUrL0Vxzs-2" target="UqHOQpS3FC7qUrL0Vxzs-3">
          <mxGeometry relative="1" as="geometry" />
        </mxCell>
        <mxCell id="UqHOQpS3FC7qUrL0Vxzs-6" style="edgeStyle=orthogonalEdgeStyle;rounded=0;orthogonalLoop=1;jettySize=auto;html=1;exitX=0.75;exitY=1;exitDx=0;exitDy=0;entryX=1;entryY=0.5;entryDx=0;entryDy=0;" edge="1" parent="1" source="UqHOQpS3FC7qUrL0Vxzs-2" target="UqHOQpS3FC7qUrL0Vxzs-4">
          <mxGeometry relative="1" as="geometry" />
        </mxCell>
        <mxCell id="UqHOQpS3FC7qUrL0Vxzs-2" value="Coral Manipulator" style="rounded=0;whiteSpace=wrap;html=1;fontSize=20;fillColor=#e3c800;fontColor=#000000;strokeColor=#B09500;" vertex="1" parent="1">
          <mxGeometry x="60" y="90" width="180" height="60" as="geometry" />
        </mxCell>
        <mxCell id="UqHOQpS3FC7qUrL0Vxzs-3" value="Scoring" style="rounded=0;whiteSpace=wrap;html=1;fontSize=20;fillColor=#60a917;fontColor=#ffffff;strokeColor=#2D7600;" vertex="1" parent="1">
          <mxGeometry x="10" y="170" width="160" height="60" as="geometry" />
        </mxCell>
        <mxCell id="UqHOQpS3FC7qUrL0Vxzs-4" value="TOF Integration" style="rounded=0;whiteSpace=wrap;html=1;fontSize=20;fillColor=#e3c800;fontColor=#000000;strokeColor=#B09500;" vertex="1" parent="1">
          <mxGeometry x="10" y="250" width="160" height="60" as="geometry" />
        </mxCell>
        <mxCell id="UqHOQpS3FC7qUrL0Vxzs-13" style="edgeStyle=orthogonalEdgeStyle;rounded=0;orthogonalLoop=1;jettySize=auto;html=1;exitX=0.75;exitY=1;exitDx=0;exitDy=0;entryX=1;entryY=0.5;entryDx=0;entryDy=0;" edge="1" parent="1" source="UqHOQpS3FC7qUrL0Vxzs-9" target="UqHOQpS3FC7qUrL0Vxzs-11">
          <mxGeometry relative="1" as="geometry" />
        </mxCell>
        <mxCell id="UqHOQpS3FC7qUrL0Vxzs-14" style="edgeStyle=orthogonalEdgeStyle;rounded=0;orthogonalLoop=1;jettySize=auto;html=1;exitX=0.75;exitY=1;exitDx=0;exitDy=0;entryX=1;entryY=0.5;entryDx=0;entryDy=0;" edge="1" parent="1" source="UqHOQpS3FC7qUrL0Vxzs-9" target="UqHOQpS3FC7qUrL0Vxzs-12">
          <mxGeometry relative="1" as="geometry" />
        </mxCell>
        <mxCell id="UqHOQpS3FC7qUrL0Vxzs-9" value="Algae Manipulator" style="rounded=0;whiteSpace=wrap;html=1;fontSize=20;fillColor=#e51400;fontColor=#ffffff;strokeColor=#B20000;" vertex="1" parent="1">
          <mxGeometry x="60" y="330" width="180" height="60" as="geometry" />
        </mxCell>
        <mxCell id="UqHOQpS3FC7qUrL0Vxzs-11" value="Pivot" style="rounded=0;whiteSpace=wrap;html=1;fontSize=20;fillColor=#e51400;fontColor=#ffffff;strokeColor=#B20000;" vertex="1" parent="1">
          <mxGeometry x="10" y="410" width="160" height="60" as="geometry" />
        </mxCell>
        <mxCell id="UqHOQpS3FC7qUrL0Vxzs-12" value="Intake" style="rounded=0;whiteSpace=wrap;html=1;fontSize=20;fillColor=#e51400;fontColor=#ffffff;strokeColor=#B20000;" vertex="1" parent="1">
          <mxGeometry x="10" y="490" width="160" height="60" as="geometry" />
        </mxCell>
        <mxCell id="UqHOQpS3FC7qUrL0Vxzs-15" value="Climber" style="rounded=0;whiteSpace=wrap;html=1;fontSize=20;fillColor=#e51400;fontColor=#ffffff;strokeColor=#B20000;" vertex="1" parent="1">
          <mxGeometry x="60" y="570" width="180" height="60" as="geometry" />
        </mxCell>
        <mxCell id="UqHOQpS3FC7qUrL0Vxzs-18" style="edgeStyle=orthogonalEdgeStyle;rounded=0;orthogonalLoop=1;jettySize=auto;html=1;exitX=0.75;exitY=1;exitDx=0;exitDy=0;entryX=1;entryY=0.5;entryDx=0;entryDy=0;" edge="1" parent="1" source="UqHOQpS3FC7qUrL0Vxzs-21" target="UqHOQpS3FC7qUrL0Vxzs-24">
          <mxGeometry relative="1" as="geometry" />
        </mxCell>
        <mxCell id="UqHOQpS3FC7qUrL0Vxzs-19" style="edgeStyle=orthogonalEdgeStyle;rounded=0;orthogonalLoop=1;jettySize=auto;html=1;exitX=0.75;exitY=1;exitDx=0;exitDy=0;entryX=1;entryY=0.5;entryDx=0;entryDy=0;" edge="1" parent="1" source="UqHOQpS3FC7qUrL0Vxzs-21" target="UqHOQpS3FC7qUrL0Vxzs-29">
          <mxGeometry relative="1" as="geometry" />
        </mxCell>
        <mxCell id="UqHOQpS3FC7qUrL0Vxzs-54" style="edgeStyle=orthogonalEdgeStyle;rounded=0;orthogonalLoop=1;jettySize=auto;html=1;exitX=0.75;exitY=1;exitDx=0;exitDy=0;entryX=1;entryY=0.5;entryDx=0;entryDy=0;" edge="1" parent="1" source="UqHOQpS3FC7qUrL0Vxzs-21" target="UqHOQpS3FC7qUrL0Vxzs-53">
          <mxGeometry relative="1" as="geometry" />
        </mxCell>
        <mxCell id="UqHOQpS3FC7qUrL0Vxzs-21" value="Drivetrain" style="rounded=0;whiteSpace=wrap;html=1;fontSize=20;fillColor=#e51400;fontColor=#ffffff;strokeColor=#B20000;" vertex="1" parent="1">
          <mxGeometry x="430" y="10" width="160" height="60" as="geometry" />
        </mxCell>
        <mxCell id="UqHOQpS3FC7qUrL0Vxzs-59" style="edgeStyle=orthogonalEdgeStyle;rounded=0;orthogonalLoop=1;jettySize=auto;html=1;exitX=0.75;exitY=1;exitDx=0;exitDy=0;entryX=1;entryY=0.5;entryDx=0;entryDy=0;" edge="1" parent="1" source="UqHOQpS3FC7qUrL0Vxzs-24" target="UqHOQpS3FC7qUrL0Vxzs-26">
          <mxGeometry relative="1" as="geometry" />
        </mxCell>
        <mxCell id="UqHOQpS3FC7qUrL0Vxzs-24" value="Drive Code" style="rounded=0;whiteSpace=wrap;html=1;fontSize=20;fillColor=#e51400;fontColor=#ffffff;strokeColor=#B20000;" vertex="1" parent="1">
          <mxGeometry x="350" y="90" width="180" height="60" as="geometry" />
        </mxCell>
        <mxCell id="UqHOQpS3FC7qUrL0Vxzs-26" value="Controls Design" style="rounded=0;whiteSpace=wrap;html=1;fontSize=20;fillColor=#e51400;fontColor=#ffffff;strokeColor=#B20000;" vertex="1" parent="1">
          <mxGeometry x="300" y="170" width="160" height="60" as="geometry" />
        </mxCell>
        <mxCell id="UqHOQpS3FC7qUrL0Vxzs-27" style="edgeStyle=orthogonalEdgeStyle;rounded=0;orthogonalLoop=1;jettySize=auto;html=1;exitX=0.75;exitY=1;exitDx=0;exitDy=0;entryX=1;entryY=0.5;entryDx=0;entryDy=0;" edge="1" parent="1" source="UqHOQpS3FC7qUrL0Vxzs-29" target="UqHOQpS3FC7qUrL0Vxzs-30">
          <mxGeometry relative="1" as="geometry" />
        </mxCell>
        <mxCell id="UqHOQpS3FC7qUrL0Vxzs-28" style="edgeStyle=orthogonalEdgeStyle;rounded=0;orthogonalLoop=1;jettySize=auto;html=1;exitX=0.75;exitY=1;exitDx=0;exitDy=0;entryX=1;entryY=0.5;entryDx=0;entryDy=0;" edge="1" parent="1" source="UqHOQpS3FC7qUrL0Vxzs-29" target="UqHOQpS3FC7qUrL0Vxzs-31">
          <mxGeometry relative="1" as="geometry" />
        </mxCell>
        <mxCell id="UqHOQpS3FC7qUrL0Vxzs-35" style="edgeStyle=orthogonalEdgeStyle;rounded=0;orthogonalLoop=1;jettySize=auto;html=1;exitX=0.75;exitY=1;exitDx=0;exitDy=0;entryX=1;entryY=0.5;entryDx=0;entryDy=0;" edge="1" parent="1" source="UqHOQpS3FC7qUrL0Vxzs-29" target="UqHOQpS3FC7qUrL0Vxzs-34">
          <mxGeometry relative="1" as="geometry" />
        </mxCell>
        <mxCell id="UqHOQpS3FC7qUrL0Vxzs-29" value="Auto Code and Pathplanner" style="rounded=0;whiteSpace=wrap;html=1;fontSize=20;fillColor=#e51400;fontColor=#ffffff;strokeColor=#B20000;" vertex="1" parent="1">
          <mxGeometry x="350" y="250" width="180" height="60" as="geometry" />
        </mxCell>
        <mxCell id="UqHOQpS3FC7qUrL0Vxzs-30" value="Left 3.5 Coral Auto" style="rounded=0;whiteSpace=wrap;html=1;fontSize=20;fillColor=#e51400;fontColor=#ffffff;strokeColor=#B20000;" vertex="1" parent="1">
          <mxGeometry x="300" y="330" width="160" height="60" as="geometry" />
        </mxCell>
        <mxCell id="UqHOQpS3FC7qUrL0Vxzs-31" value="Right 3.5 Coral Auto" style="rounded=0;whiteSpace=wrap;html=1;fontSize=20;fillColor=#e51400;fontColor=#ffffff;strokeColor=#B20000;" vertex="1" parent="1">
          <mxGeometry x="300" y="410" width="160" height="60" as="geometry" />
        </mxCell>
        <mxCell id="UqHOQpS3FC7qUrL0Vxzs-34" value="Center 1 Coral Auto" style="rounded=0;whiteSpace=wrap;html=1;fontSize=20;fillColor=#e51400;fontColor=#ffffff;strokeColor=#B20000;" vertex="1" parent="1">
          <mxGeometry x="300" y="490" width="160" height="60" as="geometry" />
        </mxCell>
        <mxCell id="UqHOQpS3FC7qUrL0Vxzs-38" style="edgeStyle=orthogonalEdgeStyle;rounded=0;orthogonalLoop=1;jettySize=auto;html=1;exitX=0.75;exitY=1;exitDx=0;exitDy=0;entryX=1;entryY=0.5;entryDx=0;entryDy=0;" edge="1" parent="1" source="UqHOQpS3FC7qUrL0Vxzs-40" target="UqHOQpS3FC7qUrL0Vxzs-43">
          <mxGeometry relative="1" as="geometry" />
        </mxCell>
        <mxCell id="UqHOQpS3FC7qUrL0Vxzs-39" style="edgeStyle=orthogonalEdgeStyle;rounded=0;orthogonalLoop=1;jettySize=auto;html=1;exitX=0.75;exitY=1;exitDx=0;exitDy=0;entryX=1;entryY=0.5;entryDx=0;entryDy=0;" edge="1" parent="1" source="UqHOQpS3FC7qUrL0Vxzs-40" target="UqHOQpS3FC7qUrL0Vxzs-49">
          <mxGeometry relative="1" as="geometry" />
        </mxCell>
        <mxCell id="UqHOQpS3FC7qUrL0Vxzs-40" value="Vision" style="rounded=0;whiteSpace=wrap;html=1;fontSize=20;fillColor=#e51400;fontColor=#ffffff;strokeColor=#B20000;" vertex="1" parent="1">
          <mxGeometry x="720" y="10" width="160" height="60" as="geometry" />
        </mxCell>
        <mxCell id="UqHOQpS3FC7qUrL0Vxzs-56" style="edgeStyle=orthogonalEdgeStyle;rounded=0;orthogonalLoop=1;jettySize=auto;html=1;exitX=0.75;exitY=1;exitDx=0;exitDy=0;entryX=1;entryY=0.5;entryDx=0;entryDy=0;" edge="1" parent="1" source="UqHOQpS3FC7qUrL0Vxzs-43" target="UqHOQpS3FC7qUrL0Vxzs-55">
          <mxGeometry relative="1" as="geometry" />
        </mxCell>
        <mxCell id="UqHOQpS3FC7qUrL0Vxzs-58" style="edgeStyle=orthogonalEdgeStyle;rounded=0;orthogonalLoop=1;jettySize=auto;html=1;exitX=0.75;exitY=1;exitDx=0;exitDy=0;entryX=1;entryY=0.5;entryDx=0;entryDy=0;" edge="1" parent="1" source="UqHOQpS3FC7qUrL0Vxzs-43" target="UqHOQpS3FC7qUrL0Vxzs-57">
          <mxGeometry relative="1" as="geometry" />
        </mxCell>
        <mxCell id="UqHOQpS3FC7qUrL0Vxzs-43" value="Localization" style="rounded=0;whiteSpace=wrap;html=1;fontSize=20;fillColor=#e51400;fontColor=#ffffff;strokeColor=#B20000;" vertex="1" parent="1">
          <mxGeometry x="640" y="90" width="180" height="60" as="geometry" />
        </mxCell>
        <mxCell id="UqHOQpS3FC7qUrL0Vxzs-49" value="Algae Detection" style="rounded=0;whiteSpace=wrap;html=1;fontSize=20;fillColor=#e51400;fontColor=#ffffff;strokeColor=#B20000;" vertex="1" parent="1">
          <mxGeometry x="640" y="330" width="180" height="60" as="geometry" />
        </mxCell>
        <mxCell id="UqHOQpS3FC7qUrL0Vxzs-53" value="Point to Point Navigation" style="rounded=0;whiteSpace=wrap;html=1;fontSize=20;fillColor=#e51400;fontColor=#ffffff;strokeColor=#B20000;" vertex="1" parent="1">
          <mxGeometry x="350" y="570" width="180" height="60" as="geometry" />
        </mxCell>
        <mxCell id="UqHOQpS3FC7qUrL0Vxzs-55" value="PhotonVision Setup" style="rounded=0;whiteSpace=wrap;html=1;fontSize=20;fillColor=#e51400;fontColor=#ffffff;strokeColor=#B20000;" vertex="1" parent="1">
          <mxGeometry x="590" y="170" width="160" height="60" as="geometry" />
        </mxCell>
        <mxCell id="UqHOQpS3FC7qUrL0Vxzs-57" value="Software Integration" style="rounded=0;whiteSpace=wrap;html=1;fontSize=20;fillColor=#e51400;fontColor=#ffffff;strokeColor=#B20000;" vertex="1" parent="1">
          <mxGeometry x="590" y="250" width="160" height="60" as="geometry" />
        </mxCell>
        <mxCell id="UqHOQpS3FC7qUrL0Vxzs-61" value="&lt;h1 style=&quot;margin-top: 0px;&quot;&gt;&lt;font style=&quot;font-size: 40px;&quot;&gt;SDS-Kitbot&lt;/font&gt;&lt;/h1&gt;&lt;div&gt;&lt;font style=&quot;font-size: 24px;&quot;&gt;Software Progress Chart&lt;/font&gt;&lt;/div&gt;&lt;div&gt;&lt;font style=&quot;font-size: 24px;&quot;&gt;5/17/2025&lt;/font&gt;&lt;/div&gt;" style="text;html=1;whiteSpace=wrap;overflow=hidden;rounded=0;align=center;verticalAlign=middle;" vertex="1" parent="1">
          <mxGeometry x="590" y="440" width="310" height="190" as="geometry" />
        </mxCell>
      </root>
    </mxGraphModel>
  </diagram>
</mxfile>
